<?xml version="1.0" encoding="utf-8"?>
<!-- Generator: Adobe Illustrator 22.1.0, SVG Export Plug-In . SVG Version: 6.00 Build 0)  -->
<svg version="1.1" id="Capa_2" xmlns="http://www.w3.org/2000/svg" xmlns:xlink="http://www.w3.org/1999/xlink" x="0px" y="0px"
	 viewBox="0 0 1108 159" style="enable-background:new 0 0 1108 159;" xml:space="preserve">
<style type="text/css">
	.st0{fill:#00E2FF;}
	.st1{fill:#868686;}
</style>
<g id="tipografia">
	<polygon class="st0" points="312.6,16.4 277,16.4 277,16.4 262,16.4 262,149.5 277,149.5 277,31.4 312.6,31.4 	"/>
	<polygon class="st0" points="604.2,134.5 547.3,134.5 547.3,16.7 532.3,16.7 532.3,149.5 550.1,149.5 550.1,149.5 604.2,149.5 	"/>
	<polygon class="st0" points="231.9,149.2 180.2,16.4 168.1,16.6 162,16.4 110.4,149.2 127.5,149.5 171.3,39 215,149.2 	"/>
	<polygon class="st0" points="442.5,149.2 390.8,16.4 378.7,16.6 372.6,16.4 321,149.2 338.1,149.5 381.9,39 425.6,149.2 	"/>
	<polygon class="st0" points="739.1,149.2 687.5,16.4 675.4,16.6 669.3,16.4 617.6,149.2 634.7,149.5 678.5,39 722.2,149.2 	"/>
	<g>
		<path class="st0" d="M36.4,134.8H20.5V32.6c0,0,16.1,0,18.2,0C66.5,32.6,85,56,85,83.8C85,111.6,64.2,134.8,36.4,134.8 M38.6,16.7
			c-0.5,0-32.5-0.1-32.5-0.1L5.7,149.5H37c36.6,0,66.4-29.7,66.4-66.4S75.3,16.7,38.6,16.7"/>
		<path class="st0" d="M806.7,132.3h-35V88.7c4.1,0,32.9-0.2,33.5-0.2c12.6,0,22.8,10.2,22.8,22.8
			C828,123.4,818.6,131.8,806.7,132.3 M811,51.8c0,10.1-10.5,18.8-21,20.9c-4.5,0-10.4,0.1-18.4,0.2V30.8c0,0,17.8,0.1,18.2,0.1
			C801.6,30.9,811,40.3,811,51.8 M817.1,74.6c5.3-6.2,8.5-14.1,8.5-22.9c0-18.6-13.6-34.4-32.7-35.3v-0.1h-22h-14.2l-0.1,133.1h15
			l0,0h35.6c21.3,0,36.5-17,36.5-38.2C843.7,94.1,832.5,79.7,817.1,74.6"/>
	</g>
	<polygon class="st1" points="991.4,16.5 991.4,122.4 971.1,122.4 971.1,68.8 937.9,108.7 904.8,68.8 904.8,122.4 884.5,122.4 
		884.5,16.5 885.9,16.5 937.9,77.6 990.1,16.5 	"/>
	<polygon class="st1" points="1079.1,16.5 1051.5,54.6 1024,16.5 998.6,16.5 1038.9,70 999.5,122.4 1024.9,122.4 1051.5,85.5 
		1078.2,122.4 1103.6,122.4 1064.1,70 1104.3,16.5 	"/>
</g>
</svg>
